<svg id="Layer_1" data-name="Layer 1" xmlns="http://www.w3.org/2000/svg" viewBox="0 0 1080 1080"><defs><style>.cls-1{fill:#f15a29;}.cls-2{fill:#fff;}.cls-3{fill:#fbb040;}.cls-4{fill:#558959;}.cls-5{fill:#b2d6f1;}.cls-6{fill:#231f20;}</style></defs><title>masshike_logo_final</title><path class="cls-1" d="M631.7,842V888a359.37,359.37,0,0,0,155.87-87.82L720,669.63Z"/><path class="cls-2" d="M734.29,928.45l-4.64,2.38L737,945.12l4.6-2.36c5-2.56,6.18-7.35,4.2-11.21S739.49,925.78,734.29,928.45Z"/><path class="cls-1" d="M341.41,840.59a358.18,358.18,0,0,0,90.23,43l1.77.55V606.92h-92Z"/><polygon class="cls-2" points="388.76 137.71 371.78 117.88 371.95 143.99 388.76 137.71"/><path class="cls-1" d="M579.05,897.84q17.85-2,35.14-5.68V658.49l-35.14-15.08Z"/><path class="cls-3" d="M450.92,889.08a358.7,358.7,0,0,0,88.25,11c7.51,0,15-.26,22.37-.72V638.89H450.92Z"/><polygon class="cls-3" points="329.54 589.41 332.66 589.41 341.41 589.41 433.41 589.41 442.16 589.41 445.28 589.41 445.28 572.95 329.54 572.95 329.54 589.41"/><path class="cls-2" d="M337.3,923.33l-4.59-2.48L325.08,935l4.55,2.45c4.92,2.66,9.55.94,11.61-2.88S342.43,926.11,337.3,923.33Z"/><path class="cls-2" d="M637.72,963.21c-5.18,1.2-7.66,5.54-6.59,10.19s5.22,7.46,10.39,6.27a8.24,8.24,0,0,0,6.54-10.19C647,964.84,642.84,962,637.72,963.21Z"/><path class="cls-2" d="M264.05,887.08l-6.35-5.31-3.48,4.17,6.35,5.31c1.51,1.26,3.13,1.18,4.14,0A2.84,2.84,0,0,0,264.05,887.08Z"/><path class="cls-2" d="M827.47,863.38l-4.8,4.39,4.43,4.85,4.8-4.39c1.59-1.45,2.07-3.62.72-5.1S829.06,861.93,827.47,863.38Z"/><polygon class="cls-2" points="228.14 854.66 233.61 843.7 222.35 848.55 228.14 854.66"/><path class="cls-2" d="M296.94,898.1l-5.31-3.76-3.79,5.36,5.31,3.76c1.76,1.24,4,1.26,5.14-.39S298.7,899.34,296.94,898.1Z"/><path class="cls-2" d="M271.05,878.27l-6.13-5.13L261.69,877l6.13,5.12a2.59,2.59,0,0,0,3.79-.14A2.56,2.56,0,0,0,271.05,878.27Z"/><path class="cls-2" d="M767.38,909.17c-4.49,2.83-5.4,7.76-2.85,11.79s7.37,5.33,11.87,2.5a8.24,8.24,0,0,0,2.82-11.77C776.67,907.66,771.84,906.36,767.38,909.17Z"/><path class="cls-2" d="M798.72,887.34c-4.21,3.23-4.67,8.22-1.77,12s7.84,4.63,12,1.4a8.22,8.22,0,0,0,1.73-12C807.83,885,802.9,884.13,798.72,887.34Z"/><path class="cls-2" d="M476.23,969.43c-5.25-.79-9.15,2.34-9.86,7.06s2.1,8.86,7.35,9.65a8.24,8.24,0,0,0,9.82-7.07C484.25,974.36,481.44,970.22,476.23,969.43Z"/><polygon class="cls-2" points="395.2 406.35 366.09 371.23 334.88 410.83 365.29 446.04 395.2 406.35"/><path class="cls-3" d="M728.47,625,842,734q7.28-11.37,13.71-23.31L728.47,604.55Z"/><path class="cls-2" d="M394.86,319.09a10.83,10.83,0,0,0,10.82,10.81H509.23a18.54,18.54,0,0,0,0-37.08H484.94l-1-4.15-.62-2.48a30,30,0,0,0-58.12-.77,29.72,29.72,0,0,0-.72,12.72l1.62,10.13H405.68A10.83,10.83,0,0,0,394.86,319.09Z"/><path class="cls-4" d="M701.76,527.22a28.32,28.32,0,1,1,0-56.64h1a47.23,47.23,0,0,1,3.71-15.89l-36.55-44.28-44.37,49.42c-.1.1-.21.17-.31.27a8.17,8.17,0,0,1-.63.69,8.76,8.76,0,0,1-12.36-.73l-53.48-60.18-76.82,94.55h0l0,0a9.2,9.2,0,0,1-1.12,1.13.76.76,0,0,0-.09.09l-.07,0a8,8,0,0,1-1.14.79l-.22.12a9.06,9.06,0,0,1-1.1.5l-.19.08a8.68,8.68,0,0,1-1.24.32l-.33.05a7.78,7.78,0,0,1-1.27.11h-.05a8.66,8.66,0,0,1-1.25-.1l-.33-.06a7.64,7.64,0,0,1-1.23-.31l-.18-.07a8.73,8.73,0,0,1-1.08-.49l-.23-.12a8.18,8.18,0,0,1-1.12-.76l-.08-.05-.09-.1a8.31,8.31,0,0,1-1.12-1.1l0,0,0,0L406.69,420.2l-33.95,45,0,0a6.87,6.87,0,0,1-.58.63,8.18,8.18,0,0,1-.64.68l0,0a9.58,9.58,0,0,1-1.31.94c-.1.06-.21.09-.31.14a7.92,7.92,0,0,1-1.19.54,3.76,3.76,0,0,1-.48.13,8.47,8.47,0,0,1-1.08.26c-.2,0-.4,0-.59,0s-.51.07-.76.07l-.22,0a7.64,7.64,0,0,1-1.06-.12c-.23,0-.46-.05-.69-.1a8.22,8.22,0,0,1-1.06-.35c-.21-.07-.43-.13-.64-.22a9,9,0,0,1-1-.61c-.18-.11-.37-.2-.54-.32l0,0a8.81,8.81,0,0,1-1.33-1.25l0,0-35.28-40.85L184.93,601.09c15.71,92.49,66.87,173.06,139,227.18V606.92h-3.12a8.76,8.76,0,0,1-8.76-8.76v-34a8.75,8.75,0,0,1,8.76-8.75h56.79V519.91a8.75,8.75,0,1,1,17.5,0v35.54h59a8.75,8.75,0,0,1,8.75,8.75v34a8.76,8.76,0,0,1-8.75,8.76h-3.12v14.46H570.4a9.42,9.42,0,0,1,1.51.15l.35.08a9.63,9.63,0,0,1,1.32.41l.16.06h0l52.65,22.59a8.74,8.74,0,0,1,4.6,4.66l80-68.13v-6.36a8.75,8.75,0,1,1,17.5,0v6.9L863.8,694.69a355,355,0,0,0,13.66-32.8L766.3,527.22Z"/><path class="cls-2" d="M539.17,38.54c-134.14,0-260.25,52.23-355.1,147.09S37,406.59,37,540.73,89.22,801,184.07,895.83s221,147.08,355.1,147.08,260.25-52.23,355.1-147.08,147.09-221,147.09-355.1-52.24-260.25-147.09-355.1S673.31,38.54,539.17,38.54ZM794,145.9l27.76,19.7c3.24,2.3,4.2,6.75,2,9.79s-6.62,3.53-9.86,1.23l-21-14.92-6,8.44,20.44,14.51c3.24,2.3,4.2,6.75,2.05,9.79s-6.68,3.61-9.92,1.31l-20.45-14.51-6.47,9.12,21,14.92c3.24,2.3,4.25,6.68,2.1,9.72s-6.68,3.61-9.92,1.31l-27.76-19.7c-4.9-3.48-5.84-7.8-2.66-12.29l26.16-36.87C784.73,143,789.12,142.42,794,145.9Zm-82-34.05c1.81-4,6.88-5.78,11.33-3.75s6.43,7,4.62,11l-7.57,16.63,31-12.1a8.35,8.35,0,0,1,6.61.24,8,8,0,0,1,4.29,10.25,6.89,6.89,0,0,1-3.81,3.7l-23.8,8.52,9.71,27.36a7.26,7.26,0,0,1-.32,5.38,8.13,8.13,0,0,1-10.85,3.67,8.85,8.85,0,0,1-4.76-5L719.3,150l-6.57,2.64-4.48,9.84c-1.81,4-6.88,5.78-11.33,3.76s-6.43-7-4.62-11Zm-51.21,34,13.93-45.55c1.29-4.19,6.08-6.62,10.76-5.19s7.29,6.14,6,10.32L677.58,151c-1.28,4.19-6.08,6.62-10.76,5.18S659.54,150,660.82,145.83ZM583.9,130.41l7.92-47c.73-4.32,5.16-7.36,10-6.54s8,5.13,7.29,9.45l-2.65,15.72,27.84,4.69L636.94,91c.73-4.32,5.17-7.35,10-6.54s8,5.13,7.29,9.45l-7.91,47c-.73,4.32-5.17,7.36-10,6.55s-8-5.14-7.3-9.46L632,120.55l-27.83-4.69-3,17.46c-.72,4.32-5.16,7.35-10,6.54S583.17,134.73,583.9,130.41ZM512,74.26a49.76,49.76,0,0,1,21.3,3.34A7.19,7.19,0,0,1,538,83.79c.22,4-3.17,7.45-7.55,7.69a10.12,10.12,0,0,1-3.8-.64c-5.73-2.12-10.78-3.07-15.05-2.84-6.82.36-8.95,2.62-8.8,5.32.17,3.26,4.4,4.15,12,5.06,11.31,1.54,26.93,3.69,27.69,17.75.66,12.47-9,21.29-27.18,22.26-10,.53-17.71-1.11-24.32-4.4a7.12,7.12,0,0,1-4.2-6c-.21-4,3.17-7.54,7.55-7.77a8,8,0,0,1,4.33.89,32.69,32.69,0,0,0,16.72,3.59c6-.33,9.54-2.85,9.38-5.83-.19-3.53-4.63-4.69-11.93-5.71-11.31-1.45-27.11-3.22-27.9-17.92C484.37,84.79,493.56,75.24,512,74.26ZM441.31,82.9a49.81,49.81,0,0,1,21.56.33,7.16,7.16,0,0,1,5.54,5.46c.78,3.93-2.09,7.82-6.39,8.67a10.18,10.18,0,0,1-3.86-.1c-6-1.29-11.1-1.52-15.3-.69-6.7,1.31-8.49,3.85-8,6.5.63,3.2,4.95,3.5,12.6,3.32,11.41-.06,27.18-.12,29.9,13.69,2.41,12.26-5.89,22.34-23.79,25.86-9.8,1.93-17.69,1.39-24.69-.93a7.13,7.13,0,0,1-5-5.39c-.77-3.93,2.08-7.91,6.38-8.76a8.08,8.08,0,0,1,4.42.28,32.72,32.72,0,0,0,17.06,1.2c5.9-1.16,9.05-4.15,8.47-7.08-.68-3.47-5.25-4-12.62-4-11.39.15-27.29.62-30.13-13.83C415.46,97.2,423.22,86.46,441.31,82.9Zm-85.08,34.72A15.55,15.55,0,0,1,366.59,104c6.21-2.32,12.8-.7,16.66,3.53l32.32,34.69a8.46,8.46,0,0,1,1.56,2.41c1.56,4.19-.89,9-5.47,10.7a8.73,8.73,0,0,1-9.82-2.41l-3.67-4.3L372,158.4l0,5.65a8.8,8.8,0,0,1-5.84,8.25c-4.58,1.71-9.58-.3-11.14-4.49a6.57,6.57,0,0,1-.41-2.84ZM262.1,159.91c5-3.31,11.39-3.28,15.78-.14L302.3,176.6l-5.79-29.12A14.23,14.23,0,0,1,302.92,133c6.47-4.27,15-2.85,18.88,3.07l23.56,35.7c2.42,3.66,1.24,8.9-2.84,11.6s-9.37,1.71-11.78-2l-19.1-28.93,8.26,42.11a5.18,5.18,0,0,1-7.91,5.22l-35.48-24.15,19.1,28.93c2.41,3.66,1.23,8.9-2.85,11.6s-9.37,1.71-11.78-1.94l-23.57-35.71C253.51,172.61,255.55,164.23,262.1,159.91ZM120.56,530a13.41,13.41,0,0,0,10.67,1.76,6.13,6.13,0,1,1,2.5,12,29.24,29.24,0,0,1-6.07.65,24.61,24.61,0,0,1-14-4.25,28.36,28.36,0,0,1-4.09-3.36c1.42,4.92,4.74,13,10.38,16.77a13.4,13.4,0,0,0,10.68,1.77,6.13,6.13,0,0,1,2.5,12,25.43,25.43,0,0,1-20-3.61,28.84,28.84,0,0,1-4.09-3.35V599a6.13,6.13,0,0,1-12.25,0V560.38a28.2,28.2,0,0,1-4.12,3.38A24.56,24.56,0,0,1,78.75,568a30,30,0,0,1-6.08-.64,6.13,6.13,0,1,1,2.5-12,13.43,13.43,0,0,0,10.71-1.79c5.37-3.6,8.41-10.75,9.88-15.3a27.64,27.64,0,0,1-2.51,1.91,24.61,24.61,0,0,1-14,4.25,29.24,29.24,0,0,1-6.07-.65,6.13,6.13,0,1,1,2.5-12A13.41,13.41,0,0,0,86.4,530C91.76,526.46,95,519,96.55,514a28.19,28.19,0,0,1-3.3,2.6,24.61,24.61,0,0,1-14,4.25,29.94,29.94,0,0,1-6.07-.65,6.13,6.13,0,1,1,2.5-12,13.38,13.38,0,0,0,10.67-1.77c6.87-4.57,10.31-15.6,11-19.46a6.12,6.12,0,0,1,12,0h0c.74,3.85,4.17,14.88,11,19.45a13.38,13.38,0,0,0,10.67,1.77,6.13,6.13,0,1,1,2.5,12,25.44,25.44,0,0,1-20-3.6,26.94,26.94,0,0,1-3.32-2.67C111.91,518.91,115.18,526.44,120.56,530ZM240.18,846.76l-9.09,20.32a3.75,3.75,0,0,1-.75,1.11,4,4,0,0,1-5.63-.4,4.09,4.09,0,0,1-.75-4.69l1.18-2.37-9-9.52-2.44,1a4.15,4.15,0,0,1-4.63-1,4,4,0,0,1-.1-5.65,3.12,3.12,0,0,1,1.16-.69l20.76-8a7.27,7.27,0,0,1,7.78,2A7.19,7.19,0,0,1,240.18,846.76Zm30.3,50.61c-2.72,3.26-7.46,4.08-12.27.06l-11-9.18c-2.17-1.81-2.45-3.87-.79-5.85l13.62-16.28c1.65-2,3.73-2.08,5.89-.26l10.54,8.8c4.84,4.06,4.74,8.88,2.38,11.7A6.66,6.66,0,0,1,270.4,888,7.15,7.15,0,0,1,270.48,897.37Zm25.81,21.28a3.79,3.79,0,0,1-.66,2.43,4,4,0,0,1-5.47.68,4.33,4.33,0,0,1-1.82-3.22l-.4-10.95-3.79-2.68-3.74,5.29a4.13,4.13,0,0,1-6.72-4.76l12.59-17.79c1.49-2.1,3.55-2.36,5.85-.73l9.49,6.72c5.78,4.09,6.59,9.91,3.45,14.34a9,9,0,0,1-9.33,3.75Zm7.29,11.68a4,4,0,0,1-1.48-5.41l11.83-19a4.12,4.12,0,0,1,7,4.35l-11.82,19A4,4,0,0,1,303.58,930.33Zm45.07,8.24c-4.3,8-13.3,9.43-22.1,4.68l-8-4.32c-2.48-1.35-3.16-3.3-1.94-5.58l10.08-18.68c1.23-2.27,3.24-2.78,5.72-1.44l8,4.3C349.21,922.3,353,930.59,348.65,938.57ZM383.19,944a3.66,3.66,0,0,1-4.9,1.69,4.13,4.13,0,0,1-2.05-1.89,8,8,0,0,0-4.08-4c-4.78-2.07-9.63-.17-11.52,4.21s0,9.22,4.81,11.29a9.27,9.27,0,0,0,6.1.73l.9-2.09-3.82-1.65a3.39,3.39,0,0,1-1.87-4.34,3.53,3.53,0,0,1,4.5-1.72l8,3.46a3.52,3.52,0,0,1,2,4.63l-2.09,4.82a5.52,5.52,0,0,1-4,3.55,19.33,19.33,0,0,1-12.32-1.29c-8.74-3.78-13.54-12.21-9.86-20.72s13.12-10.77,21.86-7A15.64,15.64,0,0,1,383,941,3.28,3.28,0,0,1,383.19,944Zm31.41,8.49a3.37,3.37,0,0,1-4.29,1.87l-11.44-3.93-1.58,4.6,11.13,3.81a3.21,3.21,0,1,1-2.07,6l-11.14-3.82-1.7,5L405,969.94a3.19,3.19,0,1,1-2.06,6l-15.12-5.18c-2.67-.92-3.66-2.74-2.82-5.18l6.89-20.09c.84-2.44,2.74-3.27,5.41-2.35l15.12,5.18A3.37,3.37,0,0,1,414.6,952.47Zm43,11a3.48,3.48,0,0,1-4.28,2.38l-5.55-1.28-4.32,18.72a4,4,0,0,1-4.87,2.78,4,4,0,0,1-3.15-4.63l4.32-18.72-5.64-1.3a3.3,3.3,0,1,1,1.48-6.4l19.21,4.44A3.48,3.48,0,0,1,457.61,963.48Zm34.21,16.84c-1.33,8.79-9.44,13.85-19.09,12.39s-16-8.69-14.64-17.47,9.48-13.84,19.13-12.39S493.14,971.54,491.82,980.32Zm41.95-5.65-5.69-.21-.74,19.2a4,4,0,0,1-4.26,3.65,4,4,0,0,1-4-4l.74-19.19-5.79-.22a3.3,3.3,0,1,1,.25-6.56l19.7.75a3.3,3.3,0,1,1-.25,6.55Zm35,22.23a4,4,0,0,1-4.26-3.65l-.31-8.3-13.25.5.32,8.31a4.13,4.13,0,0,1-8.23.31l-.84-22.35a4.13,4.13,0,0,1,8.22-.31l.28,7.48,13.25-.5-.29-7.48a4.13,4.13,0,0,1,8.23-.32l.85,22.35A4,4,0,0,1,568.81,996.9Zm33.35-3.71L586.28,995c-2.8.33-4.48-.89-4.78-3.46l-2.43-21.09c-.3-2.56,1.06-4.13,3.86-4.45l15.88-1.84a3.19,3.19,0,1,1,.72,6.31l-12,1.39.56,4.82,11.69-1.35a3.21,3.21,0,1,1,.73,6.35l-11.69,1.35.6,5.22,12-1.39a3.33,3.33,0,0,1,3.78,2.73A3.37,3.37,0,0,1,602.16,993.19Zm40.86-7c-9.51,2.2-18-2.21-20-10.86s3.73-16.36,13.24-18.56,18,2.21,20,10.87S652.53,983.94,643,986.15Zm38.15-10.64c-9.72,3.18-15.69-.3-17.92-7.12l-4.34-13.26a4.21,4.21,0,0,1,8-2.61l4.25,13c1.08,3.29,3.76,5,8,3.65s5.31-4.37,4.24-7.65l-4.25-13a4.2,4.2,0,0,1,7.95-2.61l4.33,13.23C693.63,966.05,690.9,972.32,681.17,975.51Zm32.92-12.37a4,4,0,0,1-5.27-1.93l-7.39-17.73-5.35,2.23a3.3,3.3,0,1,1-2.53-6.06l18.2-7.59a3.3,3.3,0,1,1,2.52,6.06L709,940.31l7.4,17.73A4,4,0,0,1,714.09,963.14Zm30.53-14.56-8.09,4.15c-2.51,1.29-4.51.74-5.69-1.55l-9.69-18.89c-1.18-2.3-.46-4.24,2.05-5.53l8-4.13c8.94-4.59,17.89-3,22,5.08S753.52,944,744.62,948.58ZM780,929.09c-8.26,5.21-17.77,3.85-22.51-3.66s-1.86-16.68,6.4-21.89,17.72-3.83,22.46,3.68S788.2,923.88,780,929.09ZM813.05,906c-7.74,5.94-17.33,5.47-22.74-1.58s-3.38-16.44,4.37-22.38,17.29-5.44,22.7,1.61S820.8,900.08,813.05,906Zm36.1-31a4.39,4.39,0,0,1-3.54,1.09l-10.78-1.94-3.42,3.13,4.37,4.78a4.13,4.13,0,0,1-6.08,5.55L815,871.58c-1.74-1.91-1.56-4,.53-5.88l8.58-7.84c5.23-4.78,11.09-4.32,14.75-.32a9,9,0,0,1,1.67,9.92l6.88.94a3.79,3.79,0,0,1,2.23,1.16A4,4,0,0,1,849.15,875.05ZM866.08,858a22.22,22.22,0,0,1-9.68,6.42,3.34,3.34,0,0,1-3.38-.68,3.62,3.62,0,0,1,0-5.09,3.74,3.74,0,0,1,1.76-1.1,15.39,15.39,0,0,0,6.83-4.22c1.93-2.07,2.31-4.07,1.29-5-1.22-1.13-3.1-.08-5.91,2-4.3,3.18-10.23,7.72-15.28,3-3.58-3.35-3.57-9.57,2.35-15.89a23.43,23.43,0,0,1,8.31-5.79,3.38,3.38,0,0,1,3.61.57,3.57,3.57,0,0,1-.06,5,4.68,4.68,0,0,1-1.5,1,17.89,17.89,0,0,0-6,3.93c-2.19,2.34-2.18,3.79-1.25,4.66,1.12,1,2.84,0,5.71-2.19,4.34-3.15,10.33-7.5,15.16-3C872.33,845.59,871.93,851.71,866.08,858Zm78.09-297.84a6.13,6.13,0,0,1,7.25-4.75,13.41,13.41,0,0,0,10.7-1.79c5.37-3.6,8.41-10.75,9.88-15.3a26.18,26.18,0,0,1-2.5,1.91,24.61,24.61,0,0,1-14,4.25,29.34,29.34,0,0,1-6.08-.65,6.13,6.13,0,0,1,2.5-12A13.39,13.39,0,0,0,962.68,530c5.64-3.78,8.72-11.49,10.1-16a28.74,28.74,0,0,1-3.28,2.59,24.61,24.61,0,0,1-14,4.25,30,30,0,0,1-6.08-.65,6.13,6.13,0,0,1,2.5-12,13.4,13.4,0,0,0,10.68-1.77c6.86-4.57,10.3-15.6,11-19.46a6.12,6.12,0,0,1,12,0h0c.74,3.85,4.17,14.88,11,19.45a13.4,13.4,0,0,0,10.68,1.77,6.13,6.13,0,0,1,2.49,12,25.45,25.45,0,0,1-20-3.6,27.71,27.71,0,0,1-3.32-2.67c1.53,5,4.79,12.49,10.17,16.08a13.44,13.44,0,0,0,10.68,1.76,6.13,6.13,0,0,1,2.49,12,29.17,29.17,0,0,1-6.07.65A24.61,24.61,0,0,1,990,540.19a28.88,28.88,0,0,1-4.08-3.35c1.42,4.91,4.74,13,10.37,16.76a13.41,13.41,0,0,0,10.68,1.77,6.13,6.13,0,0,1,2.5,12c-7.41,1.54-14.15.33-20-3.61a27.76,27.76,0,0,1-4.09-3.35V599a6.13,6.13,0,0,1-12.26,0V560.38a28.12,28.12,0,0,1-4.11,3.38A24.61,24.61,0,0,1,955,568a29.91,29.91,0,0,1-6.07-.64A6.14,6.14,0,0,1,944.17,560.12Zm-46.83,98.35q-3.14,9.53-6.76,18.87-5.75,14.79-12.75,29-3.78,7.71-7.91,15.23-7,12.71-14.95,24.9-4.76,7.28-9.88,14.36-7.27,10.07-15.24,19.7-3.63,4.38-7.4,8.66-6.48,7.35-13.36,14.41c-1.15,1.18-2.28,2.37-3.45,3.54-3.16,3.16-6.38,6.23-9.63,9.27A373.92,373.92,0,0,1,631.7,906.18c-2.91.73-5.82,1.43-8.75,2.09s-5.83,1.28-8.76,1.86q-17.36,3.5-35.14,5.34-4.37.46-8.75.81c-2.92.24-5.83.44-8.76.61-7.42.43-14.88.68-22.37.68a379.74,379.74,0,0,1-88.25-10.36l-1.77-.42c-2.34-.57-4.66-1.17-7-1.78-2.93-.78-5.84-1.59-8.75-2.43l-1.77-.52a372.46,372.46,0,0,1-90.23-40.41q-4.41-2.73-8.75-5.59t-8.75-5.92a380.31,380.31,0,0,1-51.21-42.95A376.58,376.58,0,1,1,897.34,658.47Z"/><path class="cls-2" d="M475,475.16l76.63-94.31c.16-.19.35-.34.52-.52s.29-.35.46-.5a1.7,1.7,0,0,1,.14-.1,8.9,8.9,0,0,1,.79-.58c.22-.14.42-.3.65-.42a6.08,6.08,0,0,1,.78-.36c.27-.12.52-.24.79-.33a6.74,6.74,0,0,1,.75-.17,7.17,7.17,0,0,1,.9-.18c.25,0,.51,0,.77,0s.6,0,.9,0a7.64,7.64,0,0,1,.79.13,6.21,6.21,0,0,1,.86.16c.26.07.5.18.75.27a8.86,8.86,0,0,1,.85.34c.23.11.44.26.67.4s.54.33.8.53l.15.1c.19.15.34.34.52.51s.34.29.5.47l53.82,60.55,39.82-44.36L536.17,248.42l-20.7,27.47a36,36,0,0,1-6.24,71.52H461.56l-44,58.42Z"/><path class="cls-2" d="M690.94,498.9a10.83,10.83,0,0,0,10.82,10.82H805.3a18.55,18.55,0,1,0,0-37.09H781L779.36,466a30,30,0,0,0-59.14,5.39,29.49,29.49,0,0,0,.31,6.56l1.61,10.13H701.76A10.83,10.83,0,0,0,690.94,498.9Z"/><path class="cls-5" d="M539.17,181.39c-198.14,0-359.34,161.2-359.34,359.34A361.72,361.72,0,0,0,181.65,577L359.48,351.33l.11.09a9.78,9.78,0,0,1,.78-.8,8.74,8.74,0,0,1,12.32,1.15L406,392l33.6-44.57H405.68a28.33,28.33,0,0,1,0-56.65h1a47.61,47.61,0,0,1,60.17-43.16,47.65,47.65,0,0,1,29.71,24.34L528.87,229a8.77,8.77,0,0,1,6.8-3.48,8.62,8.62,0,0,1,6.94,3.18l174,210.83a47.77,47.77,0,0,1,10.13-7.68,47.55,47.55,0,0,1,67.39,23.25H805.3a36.05,36.05,0,1,1,0,72.1H789l94.89,115a358.21,358.21,0,0,0,14.61-101.45C898.51,342.59,737.31,181.39,539.17,181.39Z"/><polygon class="cls-3" points="631.7 803.63 656.04 756.13 631.7 780.68 631.7 803.63"/><polygon class="cls-3" points="710.97 604.21 631.7 671.75 631.7 701.55 710.97 625.56 710.97 604.21"/><polygon class="cls-3" points="631.7 755.82 682.42 704.66 710.09 650.64 631.7 725.8 631.7 755.82"/><path class="cls-3" d="M800.52,787.07q3.57-3.8,7-7.69L784.5,756.12Z"/><path class="cls-3" d="M757.62,704.17a.88.88,0,0,1,.15.12L818.92,766q6.8-8.41,13.1-17.23L730,650.69Z"/><path class="cls-6" d="M366.21,172.3a8.8,8.8,0,0,0,5.84-8.25l0-5.65,26.16-9.78,3.67,4.3a8.73,8.73,0,0,0,9.82,2.41c4.58-1.71,7-6.51,5.47-10.7a8.46,8.46,0,0,0-1.56-2.41l-32.32-34.69c-3.86-4.23-10.45-5.85-16.66-3.53a15.55,15.55,0,0,0-10.36,13.62L354.66,165a6.57,6.57,0,0,0,.41,2.84C356.63,172,361.63,174,366.21,172.3Zm22.55-34.59L372,144l-.17-26.11Z"/><path d="M539.17,163.88A376.84,376.84,0,0,0,272.7,807.19a380.31,380.31,0,0,0,51.21,42.95q4.33,3,8.75,5.92t8.75,5.59a372.46,372.46,0,0,0,90.23,40.41l1.77.52c2.91.84,5.82,1.65,8.75,2.43,2.33.61,4.65,1.21,7,1.78l1.77.42a379.74,379.74,0,0,0,88.25,10.36c7.49,0,15-.25,22.37-.68,2.93-.17,5.84-.37,8.76-.61s5.84-.5,8.75-.81q17.76-1.85,35.14-5.34,4.39-.87,8.76-1.86c2.93-.66,5.84-1.36,8.75-2.09A374,374,0,0,0,796,816.46c3.25-3,6.47-6.11,9.63-9.27,1.17-1.17,2.3-2.36,3.45-3.54q6.88-7.06,13.36-14.41,3.76-4.29,7.4-8.66,8-9.63,15.24-19.7,5.11-7.08,9.88-14.36,8-12.18,14.95-24.9,4.13-7.53,7.91-15.23,7-14.25,12.75-29,3.63-9.33,6.76-18.87A377,377,0,0,0,539.17,163.88Zm-105.76,461V884.17l-1.77-.55a358.18,358.18,0,0,1-90.23-43V606.92h92Zm11.87-35.5H329.54V573H445.28ZM561.54,899.34c-7.4.46-14.86.72-22.37.72a358.7,358.7,0,0,1-88.25-11V638.89H561.54Zm52.65-235.68v228.5q-17.28,3.69-35.14,5.68V643.41l35.14,15.08ZM631.7,888V842L720,669.63l67.53,130.51A359.37,359.37,0,0,1,631.7,888Zm78.39-237.31-27.67,54L631.7,755.82v-30Zm-78.39,50.9v-29.8L711,604.21v21.35ZM656,756.13l-24.34,47.5v-23Zm144.48,30.94-16-31,23.06,23.26Q804.08,783.28,800.52,787.07Zm18.4-21.1-61.15-61.68a.88.88,0,0,0-.15-.12L730,650.69l102.07,98Q825.74,757.56,818.92,766ZM842,734,728.47,625V604.55L855.68,710.71Q849.25,722.64,842,734Zm21.83-39.33L728.47,581.75v-6.9a8.76,8.76,0,1,0-17.51,0v6.36l-80,68.13a8.74,8.74,0,0,0-4.6-4.66l-52.65-22.59h0l-.16-.06a8.42,8.42,0,0,0-1.32-.41l-.35-.08a9.42,9.42,0,0,0-1.51-.15H450.92V606.92H454a8.76,8.76,0,0,0,8.75-8.76v-34a8.75,8.75,0,0,0-8.75-8.75h-59V519.91a8.75,8.75,0,1,0-17.5,0v35.54H320.79A8.75,8.75,0,0,0,312,564.2v34a8.76,8.76,0,0,0,8.76,8.76h3.12V828.27c-72.11-54.12-123.27-134.69-139-227.18L323.84,424.84l35.28,40.85,0,0a8.81,8.81,0,0,0,1.33,1.25l0,0c.17.12.36.21.54.32a9,9,0,0,0,1,.61c.21.09.43.15.64.22a8.22,8.22,0,0,0,1.06.35c.23,0,.46.07.69.1a7.64,7.64,0,0,0,1.06.12l.22,0c.25,0,.5-.05.76-.07s.39,0,.59,0a8.47,8.47,0,0,0,1.08-.26,3.76,3.76,0,0,0,.48-.13,7.92,7.92,0,0,0,1.19-.54c.1-.05.21-.08.31-.14a9.58,9.58,0,0,0,1.31-.94l0,0a8.18,8.18,0,0,0,.64-.68,6.87,6.87,0,0,0,.58-.63l0,0,33.95-45,61.59,74.28,0,0,0,0a8.31,8.31,0,0,0,1.12,1.1l.09.1.08.05a8.18,8.18,0,0,0,1.12.76l.23.12a8.73,8.73,0,0,0,1.08.49l.18.07a7.64,7.64,0,0,0,1.23.31l.33.06a8.66,8.66,0,0,0,1.25.1h.05a7.78,7.78,0,0,0,1.27-.11l.33-.05a8.68,8.68,0,0,0,1.24-.32l.19-.08a9.06,9.06,0,0,0,1.1-.5l.22-.12a8,8,0,0,0,1.14-.79l.07,0a.76.76,0,0,1,.09-.09,9.2,9.2,0,0,0,1.12-1.13l0,0h0l76.82-94.55,53.48,60.18a8.76,8.76,0,0,0,12.36.73,8.17,8.17,0,0,0,.63-.69c.1-.1.21-.17.31-.27l44.37-49.42,36.55,44.28a47.23,47.23,0,0,0-3.71,15.89h-1a28.32,28.32,0,1,0,0,56.64H766.3L877.46,661.89A355,355,0,0,1,863.8,694.69ZM334.88,410.84l31.21-39.61,29.11,35.12L365.28,446Zm89.57-112.7a29.72,29.72,0,0,1,.72-12.72,30,30,0,0,1,58.12.77l.62,2.48,1,4.15h24.29a18.54,18.54,0,0,1,0,37.08H405.68a10.82,10.82,0,1,1,0-21.63h20.39Zm37.11,49.27h47.67a36,36,0,0,0,6.24-71.52l20.7-27.47L658.61,396.75l-39.82,44.36L565,380.56c-.16-.18-.34-.31-.5-.47s-.33-.36-.52-.51l-.15-.1c-.26-.2-.53-.36-.8-.53s-.44-.29-.67-.4a8.86,8.86,0,0,0-.85-.34c-.25-.09-.49-.2-.75-.27a6.21,6.21,0,0,0-.86-.16,7.64,7.64,0,0,0-.79-.13c-.3,0-.6,0-.9,0s-.52,0-.77,0a7.17,7.17,0,0,0-.9.18,6.74,6.74,0,0,0-.75.17c-.27.09-.52.21-.79.33a6.08,6.08,0,0,0-.78.36c-.23.12-.43.28-.65.42a8.9,8.9,0,0,0-.79.58,1.7,1.7,0,0,0-.14.1c-.17.15-.3.34-.46.5s-.36.33-.52.52L475,475.16l-57.48-69.33ZM720.53,478a29.49,29.49,0,0,1-.31-6.56,30.38,30.38,0,0,1,1-6.16,29.88,29.88,0,0,1,6.63-12.07,30.25,30.25,0,0,1,7.52-6.06,30,30,0,0,1,44,18.9l1.66,6.63H805.3a18.55,18.55,0,1,1,0,37.09H701.76a10.82,10.82,0,1,1,0-21.64h20.38ZM883.9,642.18,789,527.22H805.3a36.05,36.05,0,1,0,0-72.1H794.16a47.57,47.57,0,0,0-77.52-15.57l-174-210.83a8.62,8.62,0,0,0-6.94-3.18,8.77,8.77,0,0,0-6.8,3.48l-32.35,42.92a47.53,47.53,0,0,0-88.22,8.81,47.15,47.15,0,0,0-1.66,10h-1a28.33,28.33,0,0,0,0,56.65h33.95L406,392l-33.34-40.21a8.74,8.74,0,0,0-12.32-1.15,9.78,9.78,0,0,0-.78.8l-.11-.09L181.65,577a361.72,361.72,0,0,1-1.82-36.24c0-198.14,161.2-359.34,359.34-359.34s359.34,161.2,359.34,359.34A358.21,358.21,0,0,1,883.9,642.18Z"/><path d="M539.17,21C400.35,21,269.85,75.09,171.69,173.25S19.47,401.91,19.47,540.73,73.53,810.05,171.69,908.2s228.66,152.22,367.48,152.22,269.32-54.06,367.48-152.22,152.21-228.66,152.21-367.47S1004.8,271.4,906.65,173.25,678,21,539.17,21Zm355.1,874.8c-94.85,94.85-221,147.08-355.1,147.08s-260.25-52.23-355.1-147.08S37,674.86,37,540.73s52.24-260.25,147.09-355.1S405,38.54,539.17,38.54s260.25,52.23,355.1,147.09,147.09,221,147.09,355.1S989.12,801,894.27,895.83Z"/><path d="M133.73,520.22a6.13,6.13,0,1,0-2.5-12,13.38,13.38,0,0,1-10.67-1.77c-6.87-4.57-10.3-15.6-11-19.45h0a6.12,6.12,0,0,0-12,0c-.74,3.86-4.18,14.89-11,19.46a13.38,13.38,0,0,1-10.67,1.77,6.13,6.13,0,1,0-2.5,12,29.94,29.94,0,0,0,6.07.65,24.61,24.61,0,0,0,14-4.25,28.19,28.19,0,0,0,3.3-2.6c-1.53,5-4.79,12.44-10.15,16a13.41,13.41,0,0,1-10.67,1.76,6.13,6.13,0,1,0-2.5,12,29.24,29.24,0,0,0,6.07.65,24.61,24.61,0,0,0,14-4.25,27.64,27.64,0,0,0,2.51-1.91c-1.47,4.55-4.51,11.7-9.88,15.3a13.43,13.43,0,0,1-10.71,1.79,6.13,6.13,0,1,0-2.5,12,30,30,0,0,0,6.08.64,24.56,24.56,0,0,0,13.94-4.25,28.2,28.2,0,0,0,4.12-3.38V599a6.13,6.13,0,0,0,12.25,0V560.41a28.84,28.84,0,0,0,4.09,3.35,25.43,25.43,0,0,0,20,3.61,6.13,6.13,0,0,0-2.5-12A13.4,13.4,0,0,1,120,553.6c-5.64-3.76-9-11.85-10.38-16.77a28.36,28.36,0,0,0,4.09,3.36,24.61,24.61,0,0,0,14,4.25,29.24,29.24,0,0,0,6.07-.65,6.13,6.13,0,1,0-2.5-12A13.41,13.41,0,0,1,120.56,530c-5.38-3.59-8.65-11.12-10.17-16.08a26.94,26.94,0,0,0,3.32,2.67A25.44,25.44,0,0,0,133.73,520.22Z"/><path d="M948.92,567.37A29.91,29.91,0,0,0,955,568a24.61,24.61,0,0,0,14-4.25,28.12,28.12,0,0,0,4.11-3.38V599a6.13,6.13,0,0,0,12.26,0V560.41a27.76,27.76,0,0,0,4.09,3.35c5.87,3.94,12.61,5.15,20,3.61a6.13,6.13,0,0,0-2.5-12,13.41,13.41,0,0,1-10.68-1.77c-5.63-3.76-9-11.85-10.37-16.76a28.88,28.88,0,0,0,4.08,3.35,24.61,24.61,0,0,0,13.95,4.25,29.17,29.17,0,0,0,6.07-.65,6.13,6.13,0,0,0-2.49-12A13.44,13.44,0,0,1,996.8,530c-5.38-3.59-8.64-11.12-10.17-16.08a27.71,27.71,0,0,0,3.32,2.67,25.45,25.45,0,0,0,20,3.6,6.13,6.13,0,0,0-2.49-12,13.4,13.4,0,0,1-10.68-1.77c-6.87-4.57-10.3-15.6-11-19.45h0a6.12,6.12,0,0,0-12,0c-.74,3.86-4.18,14.89-11,19.46A13.4,13.4,0,0,1,952,508.22a6.13,6.13,0,0,0-2.5,12,30,30,0,0,0,6.08.65,24.61,24.61,0,0,0,14-4.25,28.74,28.74,0,0,0,3.28-2.59c-1.38,4.49-4.46,12.2-10.1,16A13.39,13.39,0,0,1,952,531.79a6.13,6.13,0,0,0-2.5,12,29.34,29.34,0,0,0,6.08.65,24.61,24.61,0,0,0,14-4.25,26.18,26.18,0,0,0,2.5-1.91c-1.47,4.55-4.51,11.7-9.88,15.3a13.41,13.41,0,0,1-10.7,1.79,6.13,6.13,0,0,0-2.5,12Z"/><path d="M281,214.23c2.41,3.65,7.7,4.63,11.78,1.94s5.26-7.94,2.85-11.6l-19.1-28.93L312,199.79a5.18,5.18,0,0,0,7.91-5.22l-8.26-42.11,19.1,28.93c2.41,3.66,7.7,4.64,11.78,2s5.26-7.94,2.84-11.6L321.8,136c-3.9-5.92-12.41-7.34-18.88-3.07a14.23,14.23,0,0,0-6.41,14.51l5.79,29.12-24.42-16.83c-4.39-3.14-10.76-3.17-15.78.14-6.55,4.32-8.59,12.7-4.69,18.61Z"/><path d="M447.61,121.28c7.37,0,11.94.51,12.62,4,.58,2.93-2.57,5.92-8.47,7.08a32.72,32.72,0,0,1-17.06-1.2,8.08,8.08,0,0,0-4.42-.28c-4.3.85-7.15,4.83-6.38,8.76a7.13,7.13,0,0,0,5,5.39c7,2.32,14.89,2.86,24.69.93,17.9-3.52,26.2-13.6,23.79-25.86-2.72-13.81-18.49-13.75-29.9-13.69-7.65.18-12-.12-12.6-3.32-.52-2.65,1.27-5.19,8-6.5,4.2-.83,9.33-.6,15.3.69a10.18,10.18,0,0,0,3.86.1c4.3-.85,7.17-4.74,6.39-8.67a7.16,7.16,0,0,0-5.54-5.46,49.81,49.81,0,0,0-21.56-.33c-18.09,3.56-25.85,14.3-23.83,24.55C420.32,121.9,436.22,121.43,447.61,121.28Z"/><path d="M512.83,113.13c7.3,1,11.74,2.18,11.93,5.71.16,3-3.38,5.5-9.38,5.83a32.69,32.69,0,0,1-16.72-3.59,8,8,0,0,0-4.33-.89c-4.38.23-7.76,3.77-7.55,7.77a7.12,7.12,0,0,0,4.2,6c6.61,3.29,14.35,4.93,24.32,4.4,18.21-1,27.84-9.79,27.18-22.26-.76-14.06-16.38-16.21-27.69-17.75-7.6-.91-11.83-1.8-12-5.06-.15-2.7,2-5,8.8-5.32,4.27-.23,9.32.72,15.05,2.84a10.12,10.12,0,0,0,3.8.64c4.38-.24,7.77-3.68,7.55-7.69a7.19,7.19,0,0,0-4.71-6.19A49.76,49.76,0,0,0,512,74.26c-18.42,1-27.61,10.53-27.05,20.95C485.72,109.91,501.52,111.68,512.83,113.13Z"/><path d="M591.19,139.86c4.83.81,9.27-2.22,10-6.54l3-17.46L632,120.55,629,138c-.73,4.32,2.47,8.64,7.3,9.46s9.26-2.23,10-6.55l7.91-47c.73-4.32-2.47-8.64-7.29-9.45s-9.26,2.22-10,6.54l-2.65,15.72-27.84-4.69,2.65-15.72c.73-4.32-2.47-8.64-7.29-9.45s-9.26,2.22-10,6.54l-7.92,47C583.17,134.73,586.37,139.05,591.19,139.86Z"/><path d="M666.82,156.15c4.68,1.44,9.48-1,10.76-5.18l13.93-45.56c1.29-4.18-1.33-8.88-6-10.32s-9.47,1-10.76,5.19l-13.93,45.55C659.54,150,662.15,154.72,666.82,156.15Z"/><path d="M696.92,166.22c4.45,2,9.52.23,11.33-3.76l4.48-9.84L719.3,150l9.21,27.75a8.85,8.85,0,0,0,4.76,5,8.13,8.13,0,0,0,10.85-3.67,7.26,7.26,0,0,0,.32-5.38l-9.71-27.36,23.8-8.52a6.89,6.89,0,0,0,3.81-3.7,8,8,0,0,0-4.29-10.25,8.35,8.35,0,0,0-6.61-.24l-31,12.1L728,119.11c1.81-4-.17-9-4.62-11s-9.52-.24-11.34,3.75L692.3,155.21C690.49,159.19,692.47,164.19,696.92,166.22Z"/><path d="M758.05,196.61l27.76,19.7c3.24,2.3,7.76,1.73,9.92-1.31s1.14-7.42-2.1-9.72l-21-14.92,6.47-9.12,20.45,14.51c3.24,2.3,7.76,1.73,9.92-1.31s1.19-7.49-2.05-9.79L787,170.14l6-8.44,21,14.92c3.24,2.3,7.76,1.74,9.86-1.23s1.2-7.49-2-9.79L794,145.9c-4.9-3.48-9.29-2.94-12.47,1.55l-26.16,36.87C752.21,188.81,753.15,193.13,758.05,196.61Z"/><path d="M230.88,836.93l-20.76,8a3.12,3.12,0,0,0-1.16.69,4,4,0,0,0,.1,5.64,4.13,4.13,0,0,0,4.63,1l2.44-1,9,9.52L224,863.1a4.09,4.09,0,0,0,.75,4.69,4,4,0,0,0,5.63.4,3.75,3.75,0,0,0,.75-1.11l9.09-20.32a7.19,7.19,0,0,0-1.52-7.85A7.27,7.27,0,0,0,230.88,836.93Zm-2.74,17.73-5.79-6.11,11.26-4.85Z"/><path d="M278.88,886.36c2.36-2.82,2.46-7.64-2.38-11.7L266,865.86c-2.16-1.82-4.24-1.72-5.89.26L246.45,882.4c-1.66,2-1.38,4,.79,5.85l11,9.18c4.81,4,9.55,3.2,12.27-.06a7.15,7.15,0,0,0-.08-9.37A6.66,6.66,0,0,0,278.88,886.36Zm-14.17,4.86c-1,1.21-2.63,1.29-4.14,0l-6.35-5.31,3.48-4.17,6.35,5.31A2.84,2.84,0,0,1,264.71,891.22Zm3.11-9.09L261.69,877l3.23-3.87,6.13,5.13a2.56,2.56,0,0,1,.56,3.72A2.59,2.59,0,0,1,267.82,882.13Z"/><path d="M305.07,908c3.14-4.43,2.33-10.25-3.45-14.34l-9.49-6.72c-2.3-1.63-4.36-1.37-5.85.73l-12.59,17.79a4.13,4.13,0,0,0,6.72,4.76l3.74-5.29,3.79,2.68.4,10.95a4.3,4.3,0,0,0,1.82,3.22,4,4,0,0,0,5.47-.68,3.79,3.79,0,0,0,.66-2.43l-.55-6.93A8.93,8.93,0,0,0,305.07,908Zm-11.92-4.52-5.31-3.76,3.79-5.36,5.31,3.76c1.76,1.24,2.51,3.33,1.35,5S294.91,904.7,293.15,903.46Z"/><path d="M319.43,904.87a4,4,0,0,0-5.5,1.06l-11.83,19a4.13,4.13,0,0,0,7,4.35l11.82-19A4,4,0,0,0,319.43,904.87Z"/><path d="M340.37,917.53l-8-4.3c-2.48-1.34-4.49-.83-5.72,1.44l-10.08,18.68c-1.22,2.28-.54,4.23,1.94,5.58l8,4.32c8.8,4.75,17.8,3.29,22.1-4.68S349.21,922.3,340.37,917.53Zm.87,17c-2.06,3.82-6.69,5.54-11.61,2.88L325.08,935l7.63-14.14,4.59,2.48C342.43,926.11,343.38,930.6,341.24,934.56Z"/><path d="M374.81,933.72c-8.74-3.79-18.17-1.53-21.86,7s1.12,16.94,9.86,20.72a19.33,19.33,0,0,0,12.32,1.29,5.52,5.52,0,0,0,4-3.55l2.09-4.82a3.52,3.52,0,0,0-2-4.63l-8-3.46a3.53,3.53,0,0,0-4.5,1.72,3.39,3.39,0,0,0,1.87,4.34l3.82,1.65-.9,2.09a9.27,9.27,0,0,1-6.1-.73c-4.79-2.07-6.71-6.91-4.81-11.29s6.74-6.28,11.52-4.21a8,8,0,0,1,4.08,4,4.13,4.13,0,0,0,2.05,1.89,3.66,3.66,0,0,0,4.9-1.69,3.28,3.28,0,0,0-.21-3A15.64,15.64,0,0,0,374.81,933.72Z"/><path d="M412.38,948.33l-15.12-5.18c-2.67-.92-4.57-.09-5.41,2.35L385,965.59c-.84,2.44.15,4.26,2.82,5.18L402.9,976a3.19,3.19,0,1,0,2.06-6L393.51,966l1.7-5,11.14,3.82a3.21,3.21,0,1,0,2.07-6L397.29,955l1.58-4.6,11.44,3.93a3.19,3.19,0,1,0,2.07-6Z"/><path d="M454.81,959.47,435.6,955a3.3,3.3,0,1,0-1.48,6.4l5.64,1.3-4.32,18.72a4,4,0,0,0,3.15,4.63,4,4,0,0,0,4.87-2.78l4.32-18.72,5.55,1.28a3.3,3.3,0,1,0,1.48-6.39Z"/><path d="M477.22,962.85c-9.65-1.45-17.81,3.6-19.13,12.39s5,16,14.64,17.47,17.76-3.6,19.09-12.39S486.87,964.31,477.22,962.85Zm6.32,16.22a8.24,8.24,0,0,1-9.82,7.07c-5.25-.79-8.06-5-7.35-9.65s4.61-7.85,9.86-7.06S484.25,974.36,483.54,979.07Z"/><path d="M534,968.12l-19.7-.75a3.3,3.3,0,1,0-.25,6.56l5.79.22-.74,19.19a4,4,0,0,0,4,4,4,4,0,0,0,4.26-3.65l.74-19.2,5.69.21a3.3,3.3,0,1,0,.25-6.55Z"/><path d="M567.67,967a4,4,0,0,0-4,4l.29,7.48-13.25.5-.28-7.48a4.13,4.13,0,0,0-8.22.31l.84,22.35a4.13,4.13,0,0,0,8.23-.31l-.32-8.31,13.25-.5.31,8.3a4.13,4.13,0,0,0,8.23-.31l-.85-22.35A4,4,0,0,0,567.67,967Z"/><path d="M601.43,986.88l-12,1.39-.6-5.22,11.69-1.35a3.21,3.21,0,1,0-.73-6.35l-11.69,1.35-.56-4.82,12-1.39a3.19,3.19,0,1,0-.72-6.31L582.93,966c-2.8.32-4.16,1.89-3.86,4.45l2.43,21.09c.3,2.57,2,3.79,4.78,3.46l15.88-1.83a3.37,3.37,0,0,0,3.05-3.58A3.33,3.33,0,0,0,601.43,986.88Z"/><path d="M636.22,956.73c-9.51,2.2-15.24,9.91-13.24,18.56s10.53,13.06,20,10.86,15.19-9.9,13.19-18.55S645.73,954.53,636.22,956.73Zm5.3,22.94c-5.17,1.19-9.32-1.67-10.39-6.27s1.41-9,6.59-10.19,9.26,1.63,10.34,6.27A8.24,8.24,0,0,1,641.52,979.67Z"/><path d="M687.05,945.91a4.2,4.2,0,0,0-7.95,2.61l4.25,13c1.07,3.28-.06,6.28-4.24,7.65s-6.91-.36-8-3.65l-4.26-13a4.2,4.2,0,0,0-8,2.61l4.34,13.26c2.23,6.82,8.2,10.3,17.92,7.12s12.46-9.46,10.21-16.37Z"/><path d="M709,940.31l5.25-2.19a3.3,3.3,0,1,0-2.52-6.06l-18.2,7.59a3.3,3.3,0,1,0,2.53,6.06l5.35-2.23,7.39,17.73a4.13,4.13,0,0,0,7.6-3.17Z"/><path d="M731.25,922.63l-8,4.13c-2.51,1.29-3.23,3.23-2.05,5.53l9.69,18.89c1.18,2.29,3.18,2.84,5.69,1.55l8.09-4.15c8.9-4.57,12.79-12.81,8.66-20.87S740.19,918,731.25,922.63Zm10.33,20.13-4.6,2.36-7.33-14.29,4.64-2.38c5.2-2.67,9.43-.91,11.49,3.1S746.56,940.2,741.58,942.76Z"/><path d="M763.84,903.54c-8.26,5.21-11.14,14.37-6.4,21.89s14.25,8.87,22.51,3.66,11.09-14.35,6.35-21.87S772.09,898.33,763.84,903.54Zm12.56,19.92c-4.5,2.83-9.35,1.5-11.87-2.5s-1.64-9,2.85-11.79,9.29-1.51,11.84,2.52A8.24,8.24,0,0,1,776.4,923.46Z"/><path d="M794.68,882.06c-7.75,5.94-9.78,15.32-4.37,22.38s15,7.52,22.74,1.58,9.73-15.3,4.33-22.35S802.42,876.12,794.68,882.06ZM809,900.74c-4.21,3.23-9.17,2.35-12-1.4s-2.44-8.77,1.77-12,9.11-2.36,12,1.43A8.22,8.22,0,0,1,809,900.74Z"/><path d="M847.41,868.4l-6.88-.94a9,9,0,0,0-1.67-9.92c-3.66-4-9.52-4.46-14.75.32l-8.58,7.84c-2.09,1.91-2.27,4-.53,5.88l14.7,16.08a4.13,4.13,0,0,0,6.08-5.55l-4.37-4.78,3.42-3.13,10.78,1.94a4.39,4.39,0,0,0,3.54-1.09,4,4,0,0,0,.49-5.49A3.79,3.79,0,0,0,847.41,868.4Zm-15.51-.17-4.8,4.39-4.43-4.85,4.8-4.39c1.59-1.45,3.79-1.74,5.15-.25S833.49,866.78,831.9,868.23Z"/><path d="M852.89,844.57c-2.87,2.16-4.59,3.24-5.71,2.19-.93-.87-.94-2.32,1.25-4.66a17.89,17.89,0,0,1,6-3.93,4.68,4.68,0,0,0,1.5-1,3.57,3.57,0,0,0,.06-5,3.38,3.38,0,0,0-3.61-.57,23.43,23.43,0,0,0-8.31,5.79c-5.92,6.32-5.93,12.54-2.35,15.89,5,4.73,11,.19,15.28-3,2.81-2,4.69-3.08,5.91-2,1,1,.64,3-1.29,5a15.39,15.39,0,0,1-6.83,4.22,3.74,3.74,0,0,0-1.76,1.1,3.62,3.62,0,0,0,0,5.09,3.34,3.34,0,0,0,3.38.68,22.14,22.14,0,0,0,9.67-6.42c5.86-6.25,6.26-12.37,2-16.37C863.22,837.07,857.23,841.42,852.89,844.57Z"/></svg>